PathFileType	4	(X/Y/Z)	 s04c0302.trc
DataRate	CameraRate	NumFrames	NumMarkers	Units	OrigDataRate	OrigDataStartFrame	OrigNumFrames
200	200	4	50	mm	200	1	2000
Frame#	Time	racr			lacr			c7			jug			rlel			rdr			llel			ldr			s2			lic			ric			lasi			rasi			rpsi			lpsi			rgt			lgt			rth1			rth2			rth3			rth4			rlfc			rmfc			rsh1			rsh2			rsh3			rsh4			rlmal			rmmal			rcal			rtoe			rmt5			lth1			lth2			lth4			lth3			llfc			lmfc			lsh1			lsh2			lsh3			lsh4			llmal			lmmal			lcal			ltoe			lmt5			SBIKE			LBIKE			RBIKE			
		X1	Y1	Z1	X2	Y2	Z2	X3	Y3	Z3	X4	Y4	Z4	X5	Y5	Z5	X6	Y6	Z6	X7	Y7	Z7	X8	Y8	Z8	X9	Y9	Z9	X10	Y10	Z10	X11	Y11	Z11	X12	Y12	Z12	X13	Y13	Z13	X14	Y14	Z14	X15	Y15	Z15	X16	Y16	Z16	X17	Y17	Z17	X18	Y18	Z18	X19	Y19	Z19	X20	Y20	Z20	X21	Y21	Z21	X22	Y22	Z22	X23	Y23	Z23	X24	Y24	Z24	X25	Y25	Z25	X26	Y26	Z26	X27	Y27	Z27	X28	Y28	Z28	X29	Y29	Z29	X30	Y30	Z30	X31	Y31	Z31	X32	Y32	Z32	X33	Y33	Z33	X34	Y34	Z34	X35	Y35	Z35	X36	Y36	Z36	X37	Y37	Z37	X38	Y38	Z38	X39	Y39	Z39	X40	Y40	Z40	X41	Y41	Z41	X42	Y42	Z42	X43	Y43	Z43	X44	Y44	Z44	X45	Y45	Z45	X46	Y46	Z46	X47	Y47	Z47	X48	Y48	Z48	X49	Y49	Z49	X50	Y50	Z50	
1	0.0050	544.925377	1434.806825	-107.678698	559.328331	1427.221376	-395.869678	505.404597	1481.038515	-261.833715	529.479780	1330.536608	-255.317949	506.943161	1122.285516	-1.812121	703.735697	916.552410	-82.079506	529.852315	1145.539023	-516.240405	709.714906	918.165881	-448.233915	-35.751113	1188.832792	-278.812793	132.293949	1179.725258	-422.994825	123.384788	1170.289771	-112.224720	NaN	NaN	NaN	159.083381	1110.607796	-153.545415	-0.660743	1225.416374	-232.214311	-2.221536	1231.871205	-308.391014	62.561698	1115.346967	-97.402051	84.700283	1126.647175	-470.891480	137.751380	965.127563	-77.616952	192.802038	897.275890	-88.285717	210.027607	813.160739	-95.029043	222.465863	912.915484	-105.945502	257.136682	676.939744	-123.253554	230.152699	662.484566	-234.294581	189.858836	569.009217	-98.639440	168.033182	481.054675	-112.809827	105.459040	421.825149	-118.802099	194.254945	469.235996	-138.907773	41.235670	284.281311	-128.649430	61.991587	288.494559	-214.228524	-33.957127	264.121627	-169.689623	256.965274	191.165042	-152.043998	185.274418	180.866018	-98.732795	142.746622	1071.922531	-475.177803	228.287357	1061.980346	-479.559887	242.203819	1092.265334	-463.350905	299.398138	1008.915326	-490.864132	437.687138	924.875646	-470.930091	472.957886	907.313639	-362.318982	397.403970	817.112918	-488.207435	372.886545	736.552014	-462.179100	309.506658	674.636946	-455.613499	397.249311	728.037134	-432.821283	227.857138	555.564366	-438.192400	225.251954	561.377516	-350.494153	145.071845	539.927067	-393.213265	443.098916	501.200672	-402.679900	369.368938	469.410494	-463.317437	-177.142200	935.365131	-279.670077	-3.043007	85.919196	-485.049538	-15.065434	80.442781	-84.263240	
2	0.0100	544.774120	1434.778220	-107.710666	559.158047	1427.198280	-396.037646	505.421609	1481.018391	-261.996810	529.385863	1330.433265	-255.381918	506.893968	1122.282475	-1.839111	703.693902	916.563025	-82.079464	529.656052	1145.508682	-516.299070	709.698192	918.255522	-448.451620	-35.765218	1188.837525	-278.873356	132.266266	1179.732689	-423.070028	123.336029	1170.298657	-112.235906	NaN	NaN	NaN	159.019610	1110.655497	-153.505970	-0.679019	1225.407440	-232.276295	-2.250125	1231.850986	-308.446651	62.517039	1115.354508	-97.427964	84.676070	1126.591520	-470.958465	137.750180	965.153384	-77.622011	192.799523	897.340921	-88.321738	210.080417	813.207366	-95.023959	222.495327	912.968224	-105.961569	257.185700	676.980032	-123.241755	230.317321	662.460546	-234.048470	189.882268	569.114808	-98.648759	168.061134	481.161732	-112.811149	105.409782	421.909940	-118.803078	194.281074	469.321872	-138.949684	41.196918	284.424844	-128.645820	61.945565	288.611098	-214.252624	-34.014735	264.301637	-169.683531	256.885028	191.210231	-152.041518	185.166879	180.940904	-98.738753	142.734824	1071.864249	-475.193813	228.257167	1061.904845	-479.580186	242.178686	1092.189032	-463.372928	299.370847	1008.854636	-490.838179	437.647793	924.804490	-470.873110	472.915962	907.254766	-362.250088	397.396409	817.058043	-488.185024	372.897392	736.463182	-462.160131	309.541312	674.531170	-455.592630	397.263154	727.959699	-432.785434	227.931873	555.457857	-438.194304	225.285611	561.246110	-350.507609	145.155121	539.771921	-393.214901	443.190695	501.146623	-402.691201	369.470523	469.364483	-463.311138	-177.150370	935.384907	-279.692068	-3.043944	85.950227	-485.047901	-15.048463	80.441389	-84.266445	
3	0.0150	544.623782	1434.767113	-107.713800	559.004631	1427.184565	-396.181909	505.367367	1481.044850	-262.049415	529.253422	1330.344701	-255.440296	506.853492	1122.275501	-1.863641	703.706477	916.554669	-82.081593	529.446955	1145.480123	-516.365462	709.685228	918.345934	-448.685019	-35.809318	1188.810167	-278.904347	132.251596	1179.757290	-423.153533	123.250549	1170.319606	-112.210044	NaN	NaN	NaN	158.929927	1110.682503	-153.501172	-0.682303	1225.397302	-232.331953	-2.267955	1231.829752	-308.493635	62.462418	1115.371844	-97.452716	84.663408	1126.514858	-471.005688	137.728027	965.192188	-77.623164	192.806062	897.390609	-88.321630	210.118017	813.271757	-95.016046	222.464937	913.049165	-105.944948	257.243968	677.035680	-123.266298	230.371182	662.517563	-234.062602	189.899511	569.175922	-98.643780	168.042750	481.235802	-112.829620	105.379485	422.013251	-118.805891	194.263328	469.382419	-138.932588	41.113519	284.544169	-128.652173	61.879075	288.709944	-214.261920	-34.082018	264.438569	-169.679521	256.782342	191.237775	-152.058869	185.056462	180.986879	-98.747398	142.710184	1071.813248	-475.194484	228.232829	1061.849442	-479.587357	242.157050	1092.138584	-463.362494	299.350192	1008.803123	-490.815339	437.620760	924.762656	-470.834413	472.889024	907.206516	-362.210948	397.387921	816.991006	-488.148716	372.906589	736.396597	-462.131615	309.573992	674.441434	-455.547091	397.270322	727.890022	-432.772053	228.021673	555.312674	-438.184671	225.329595	561.119471	-350.513623	145.235765	539.614047	-393.207627	443.284690	501.111557	-402.693571	369.572020	469.312654	-463.318962	-177.153615	935.390292	-279.689022	-3.043482	85.942058	-485.041794	-15.065141	80.439207	-84.289812	
4	0.0200	544.504991	1435.025611	-107.338027	558.843507	1427.172413	-396.279408	505.053388	1480.954563	-261.535586	529.159355	1330.226211	-255.497265	506.850988	1122.267371	-1.857412	703.592936	916.114661	-82.531035	529.320199	1145.387137	-516.386252	709.626791	918.408287	-448.915890	-36.139064	1188.735838	-279.066680	132.197051	1179.766240	-423.195787	123.423645	1170.262908	-112.152893	NaN	NaN	NaN	158.844771	1110.707198	-153.515142	-0.552240	1224.866548	-232.206753	-2.313906	1231.827390	-308.513812	62.415008	1115.378081	-97.460335	84.656574	1126.470182	-471.073261	137.741371	965.250684	-77.788891	193.320823	897.045813	-88.038490	210.143351	813.325677	-95.011589	222.479336	913.079752	-105.981100	257.294129	677.112637	-123.250759	230.824684	662.358592	-233.909365	189.922753	569.241963	-98.649930	167.989481	481.423710	-113.785951	105.378147	422.111343	-118.818851	195.368336	470.396199	-139.312599	41.028032	284.651326	-128.451335	61.871509	288.787723	-214.258061	-34.071782	264.645789	-169.718722	256.677564	191.297724	-152.056405	184.981771	181.039855	-98.759688	142.851304	1072.027517	-475.482644	228.209577	1061.785335	-479.569639	242.126965	1092.306474	-463.634859	299.135500	1008.749455	-490.885309	437.518840	924.770447	-470.737897	472.843167	907.145848	-362.152224	397.381083	816.928579	-488.107714	372.964489	736.317150	-462.219471	309.536435	674.321218	-455.596629	397.359744	727.852496	-432.967550	228.122222	555.074427	-437.942100	225.279104	561.000832	-350.143057	145.309696	539.444628	-393.208871	443.390061	501.059870	-402.694045	369.657856	469.245773	-463.331002	-177.190133	935.379001	-279.941155	-3.050674	85.929691	-485.044867	-15.061921	80.449723	-84.283912	
